Coordinates
version=1
nRows=4
nColumns=114
inDegrees=yes

Units are S.I. units (second, meters, Newtons, ...)
If the header above contains a line with 'inDegrees', this indicates whether rotational values are in degrees (yes) or radians (no).

endheader 
time	pelvis_tilt	pelvis_list	pelvis_rotation	pelvis_tx	pelvis_ty	pelvis_tz	hip_flexion_l	hip_adduction_l	hip_rotation_l	hip_flexion_r	hip_adduction_r	hip_rotation_r	knee_angle_l	knee_angle_r	ankle_angle_l	ankle_angle_r	subtalar_angle_l	subtalar_angle_r	mtp_angle_l	mtp_angle_r	lumbar_extension	lumbar_bending	lumbar_rotation	arm_flex_l	arm_add_l	arm_rot_l	arm_flex_r	arm_add_r	arm_rot_r	elbow_flex_l	elbow_flex_r	pro_sup_l	pro_sup_r	addbrev_l/activation	addlong_l/activation	addmagDist_l/activation	addmagIsch_l/activation	addmagMid_l/activation	addmagProx_l/activation	bflh_l/activation	bfsh_l/activation	edl_l/activation	ehl_l/activation	fdl_l/activation	fhl_l/activation	gaslat_l/activation	gasmed_l/activation	glmax1_l/activation	glmax2_l/activation	glmax3_l/activation	glmed1_l/activation	glmed2_l/activation	glmed3_l/activation	glmin1_l/activation	glmin2_l/activation	glmin3_l/activation	grac_l/activation	iliacus_l/activation	perbrev_l/activation	perlong_l/activation	piri_l/activation	psoas_l/activation	recfem_l/activation	sart_l/activation	semimem_l/activation	semiten_l/activation	soleus_l/activation	tfl_l/activation	tibant_l/activation	tibpost_l/activation	vasint_l/activation	vaslat_l/activation	vasmed_l/activation	addbrev_r/activation	addlong_r/activation	addmagDist_r/activation	addmagIsch_r/activation	addmagMid_r/activation	addmagProx_r/activation	bflh_r/activation	bfsh_r/activation	edl_r/activation	ehl_r/activation	fdl_r/activation	fhl_r/activation	gaslat_r/activation	gasmed_r/activation	glmax1_r/activation	glmax2_r/activation	glmax3_r/activation	glmed1_r/activation	glmed2_r/activation	glmed3_r/activation	glmin1_r/activation	glmin2_r/activation	glmin3_r/activation	grac_r/activation	iliacus_r/activation	perbrev_r/activation	perlong_r/activation	piri_r/activation	psoas_r/activation	recfem_r/activation	sart_r/activation	semimem_r/activation	semiten_r/activation	soleus_r/activation	tfl_r/activation	tibant_r/activation	tibpost_r/activation	vasint_r/activation	vaslat_r/activation	vasmed_r/activation	
          5.55000000	        -28.01997542	        -31.14826563	         17.18625378	         -2.61905668	          1.01233138	          0.10304669	         58.50790949	        -14.63006545	          4.81981372	          0.45956571	        -16.44816129	        -20.89486108	         26.91765943	         22.47269223	         -2.05269528	        -10.28039501	        -12.51617053	        -12.38075501	          0.13868220	          0.11879769	        -11.47130428	        -21.72231924	         22.16223029	        -97.65707798	        -21.15025487	       -383.95340939	         47.79514676	       -210.72410136	        212.81602824	         64.50372416	         20.92376212	         77.34926206	        110.91854778	          0.01001651	          0.01000882	          0.01001390	          0.01001444	          0.01001619	          0.01506666	          0.01004881	          0.04224217	          0.07943752	          0.04263945	          0.01160649	          0.01024524	          0.01002226	          0.01000971	          0.01002042	          0.01957606	          0.01002778	          0.01000565	          0.01000953	          0.01001488	          0.01001837	          0.01002507	          0.01003983	          0.01003980	          0.01725247	          0.04010414	          0.05836713	          0.21425697	          0.68373931	          0.14642046	          0.99964966	          0.01001396	          0.01003181	          0.01001683	          0.01981103	          0.12019761	          0.01282444	          0.04213198	          0.05145640	          0.04302110	          0.15002910	          0.16695699	          0.01003656	          0.01001786	          0.10448587	          0.66745553	          0.01860958	          0.20604763	          0.13166648	          0.06553476	          0.01737765	          0.01120529	          0.08451028	          0.07904651	          0.01013320	          0.01773499	          0.09083184	          0.02731417	          0.01292388	          0.27353295	          0.01393395	          0.01018940	          0.05158749	          0.16567978	          0.12337123	          0.11323635	          0.07547890	          0.05361115	          0.57806956	          0.28702703	          0.48712974	          0.09364154	          0.01004901	          0.03416320	          0.01247357	          0.22058790	          0.01056179	          0.01408432	          0.02349802	          0.01477930	
          5.56000000	        -27.78940167	        -30.91591067	         16.52774826	         -2.61349530	          1.02006115	          0.10216548	         58.29756780	        -15.09501683	          4.90118542	          0.96466236	        -16.65365474	        -19.17693891	         26.57992634	         21.34673865	         -1.75747818	        -11.59669939	        -12.41366616	        -12.03380469	          0.14338511	          0.13143011	         -9.20668081	        -20.45380644	         19.10377991	       -118.51915497	         -0.39331013	       -372.41536846	         30.11838082	       -220.93469791	        229.36664083	         61.09385286	         24.25511810	         73.29322490	        109.47965915	          0.01001047	          0.01000539	          0.01001503	          0.01001543	          0.01001455	          0.01256461	          0.01006878	          0.03523871	          0.12207127	          0.03580130	          0.01241748	          0.01172073	          0.01003417	          0.01002556	          0.01004493	          0.01704371	          0.01012291	          0.01000509	          0.01000922	          0.01001695	          0.01001616	          0.01002321	          0.01004201	          0.01003433	          0.01437922	          0.03369812	          0.07138821	          0.17857429	          0.56978415	          0.12212707	          0.99919231	          0.01001600	          0.01003461	          0.01073133	          0.03413520	          0.18594840	          0.01197538	          0.03511678	          0.04288193	          0.03585533	          0.12504225	          0.13914109	          0.01024456	          0.01005275	          0.08709374	          0.55621980	          0.01737763	          0.17172043	          0.10977917	          0.05484687	          0.01494168	          0.01109903	          0.07043464	          0.06587831	          0.01005964	          0.01479400	          0.10554580	          0.02276400	          0.01078904	          0.22804771	          0.01162428	          0.01014949	          0.04324854	          0.13808935	          0.10282551	          0.10047394	          0.06292513	          0.04495262	          0.48173090	          0.23919794	          0.40594994	          0.07803945	          0.01008803	          0.02847651	          0.01045633	          0.20355534	          0.01586821	          0.02130632	          0.03548636	          0.01662709	
          5.57000000	        -27.50749217	        -30.79245376	         15.91672126	         -2.60864199	          1.02953949	          0.10120631	         58.38310767	        -15.55148338	          5.24901423	          1.69609660	        -16.57424940	        -17.78671957	         26.55261245	         20.04948639	         -1.50293259	        -12.92072463	        -12.30066248	        -11.18842931	          0.14498066	          0.14367883	         -6.35050928	        -19.62382275	         18.63157543	       -138.32559093	         10.77922917	       -348.99165571	         11.67294528	       -228.43051530	        241.97496728	         56.53557764	         27.16554805	         71.05733314	        108.50743275	          0.01001045	          0.01000543	          0.01001427	          0.01001442	          0.01001394	          0.01048881	          0.01018379	          0.13908189	          0.11881084	          0.09157816	          0.01059267	          0.01017519	          0.02413267	          0.03602658	          0.01004013	          0.55918577	          0.01009980	          0.01000542	          0.01000918	          0.01001577	          0.01001779	          0.01002523	          0.01004531	          0.01004720	          0.01198638	          0.07336662	          0.08064984	          0.14883343	          0.47482161	          0.10182781	          0.99966694	          0.01003396	          0.01006288	          0.01000990	          0.08479600	          0.17450530	          0.01011577	          0.02926617	          0.03573553	          0.02988088	          0.10421449	          0.11595845	          0.01724994	          0.01040214	          0.07259244	          0.46352176	          0.02242976	          0.14311836	          0.09158352	          0.04583474	          0.01641394	          0.01432620	          0.05872254	          0.05491650	          0.02227202	          0.03013967	          0.08797911	          0.01897550	          0.01013991	          0.19016098	          0.01005434	          0.01022251	          0.03631457	          0.11509316	          0.08570936	          0.08374666	          0.05254877	          0.03765965	          0.40144836	          0.19933728	          0.33830134	          0.09522251	          0.01010198	          0.02373906	          0.01019735	          0.16973377	          0.01754337	          0.02528041	          0.02963612	          0.02524610	
          5.58000000	        -27.33197175	        -30.76313094	         15.27064789	         -2.60444139	          1.04019118	          0.09970437	         58.67699584	        -15.96290745	          5.76340105	          2.65801140	        -16.31912062	        -16.85317876	         26.53446560	         18.46036416	         -1.30473531	        -14.24466245	        -12.22594772	        -10.02502922	          0.13954686	          0.15743816	         -3.64426218	        -18.85086460	         19.75590635	       -158.06950708	         15.50306404	       -326.55680894	         -6.07894846	       -232.26459158	        247.99616793	         54.89756651	         29.45574618	         70.42705450	        108.07863489	          0.01001251	          0.01000642	          0.01001997	          0.01001981	          0.01001871	          0.01006770	          0.01140413	          0.11619473	          0.12856900	          0.07650741	          0.01119274	          0.01044036	          0.02139952	          0.04143996	          0.01005217	          0.57314112	          0.09841925	          0.01000601	          0.01001002	          0.01001710	          0.01001984	          0.01002701	          0.01004759	          0.01005955	          0.01001794	          0.06156035	          0.08681671	          0.12404646	          0.39568636	          0.08490693	          0.91743722	          0.01005083	          0.01009025	          0.01003922	          0.10485762	          0.18928837	          0.01028390	          0.02439127	          0.02978034	          0.02490252	          0.08685709	          0.09664024	          0.01447698	          0.01017096	          0.06050439	          0.38627329	          0.01875755	          0.11930627	          0.08260357	          0.03845760	          0.01394339	          0.01221946	          0.04896628	          0.04578325	          0.01867545	          0.02516019	          0.07332277	          0.01583696	          0.01048110	          0.15850338	          0.01019538	          0.01102481	          0.03051155	          0.09593233	          0.07148671	          0.07439886	          0.04383238	          0.03154773	          0.33454890	          0.16611985	          0.28193331	          0.07937924	          0.01063930	          0.01979054	          0.01202987	          0.15384547	          0.01472757	          0.02107912	          0.02469972	          0.02104625	
